<svg width="24" height="24" viewBox="0 0 24 24" fill="none" xmlns="http://www.w3.org/2000/svg">
<g clip-path="url(#clip0_2_10)">
<path d="M22 0H2C0.89543 0 0 0.89543 0 2C0 3.10457 0.89543 4 2 4H22C23.1046 4 24 3.10457 24 2C24 0.89543 23.1046 0 22 0Z" fill="#8FACBF"/>
<path d="M22 10H2C0.89543 10 0 10.8954 0 12C0 13.1046 0.89543 14 2 14H22C23.1046 14 24 13.1046 24 12C24 10.8954 23.1046 10 22 10Z" fill="#8FACBF"/>
<path d="M22 20H2C0.89543 20 0 20.8954 0 22C0 23.1046 0.89543 24 2 24H22C23.1046 24 24 23.1046 24 22C24 20.8954 23.1046 20 22 20Z" fill="#8FACBF"/>
</g>
<defs>
<clipPath id="clip0_2_10">
<rect width="24" height="24" fill="white"/>
</clipPath>
</defs>
</svg>
