<svg width="90" height="35" viewBox="0 0 90 35" fill="none" xmlns="http://www.w3.org/2000/svg">
<rect width="34" height="34.1828" fill="#515070"/>
<path d="M18.3921 24.6178V21.6538C18.3921 21.2516 18.7164 20.9258 19.1161 20.9258C20.5427 20.9258 21.3187 19.455 21.4264 16.5514H19.1161C18.7164 16.5514 18.3921 16.2252 18.3921 15.8235V9.5648C18.3921 9.16278 18.7164 8.83704 19.1161 8.83704H25.2757C25.6754 8.83704 25.9998 9.16313 25.9998 9.5648V15.8235C25.9998 17.2153 25.86 18.4924 25.5857 19.6204C25.3038 20.7767 24.8712 21.7876 24.3001 22.6253C23.7127 23.4862 22.9774 24.1618 22.1157 24.6322C21.2476 25.1057 20.2384 25.346 19.1158 25.346C18.7164 25.3457 18.3921 25.0196 18.3921 24.6178ZM9.05444 20.9256C8.65472 20.9256 8.33057 21.2516 8.33057 21.6532V24.6178C8.33057 25.0196 8.65472 25.3454 9.05444 25.3454C10.1764 25.3454 11.1861 25.1051 12.0537 24.6317C12.9158 24.1613 13.6511 23.4863 14.2384 22.6248C14.8099 21.787 15.2424 20.7761 15.5243 19.6192C15.7988 18.4913 15.9382 17.2141 15.9382 15.8229V9.56419C15.9382 9.16217 15.6138 8.83643 15.2142 8.83643H9.05444C8.65472 8.83643 8.33057 9.16247 8.33057 9.56419V15.8229C8.33057 16.2249 8.65472 16.5508 9.05444 16.5508H11.3323C11.2259 19.4546 10.461 20.9256 9.05444 20.9256Z" fill="white"/>
<path d="M47.0801 5.36852V12.6173C47.0801 12.8706 47.1361 13.0536 47.2481 13.1662C47.3695 13.2788 47.5655 13.3351 47.8361 13.3351H51.1541L51.2521 14.9679C50.3095 15.0711 48.9468 15.1227 47.1641 15.1227C46.4175 15.1227 45.8621 14.935 45.4981 14.5597C45.1341 14.1843 44.9521 13.6823 44.9521 13.0536V5.36852H47.0801Z" fill="#515070"/>
<path d="M52.8686 6.26934C53.4753 5.54681 54.5533 5.18555 56.1026 5.18555C57.6519 5.18555 58.7299 5.54681 59.3366 6.26934C59.9433 6.98249 60.2466 8.30087 60.2466 10.2245C60.2466 12.1481 59.9433 13.4712 59.3366 14.1937C58.7299 14.9069 57.6519 15.2634 56.1026 15.2634C54.5533 15.2634 53.4753 14.9069 52.8686 14.1937C52.2713 13.4712 51.9726 12.1481 51.9726 10.2245C51.9726 8.30087 52.2713 6.98249 52.8686 6.26934ZM57.5866 7.60649C57.3253 7.1467 56.8306 6.9168 56.1026 6.9168C55.3746 6.9168 54.8753 7.1467 54.6046 7.60649C54.3433 8.06629 54.2126 8.93895 54.2126 10.2245C54.2126 11.51 54.3433 12.3827 54.6046 12.8425C54.8753 13.3023 55.3746 13.5322 56.1026 13.5322C56.8306 13.5322 57.3253 13.3023 57.5866 12.8425C57.8573 12.3827 57.9926 11.51 57.9926 10.2245C57.9926 8.93895 57.8573 8.06629 57.5866 7.60649Z" fill="#515070"/>
<path d="M69.4809 15.0805H67.2269L66.4989 12.1106C66.4056 11.8009 66.2796 11.5898 66.1209 11.4772C65.9716 11.3552 65.7522 11.2942 65.4629 11.2942L63.9649 11.2801V15.0805H61.8649V5.36852C62.7329 5.28407 63.9602 5.24185 65.5469 5.24185C66.8442 5.24185 67.7636 5.44828 68.3049 5.86116C68.8462 6.27403 69.1169 7.02472 69.1169 8.1132C69.1169 8.82635 68.9722 9.38467 68.6829 9.78816C68.4029 10.1917 67.9316 10.4356 67.2689 10.5201V10.5905C68.0062 10.7594 68.4636 11.2473 68.6409 12.0543L69.4809 15.0805ZM63.9649 9.63333H65.5049C66.0649 9.63333 66.4476 9.5395 66.6529 9.35183C66.8582 9.15477 66.9609 8.78882 66.9609 8.25396C66.9609 7.71909 66.8582 7.35783 66.6529 7.17016C66.4569 6.98249 66.0742 6.88865 65.5049 6.88865L63.9649 6.90273V9.63333Z" fill="#515070"/>
<path d="M77.287 13.4055L77.385 14.9819C76.5077 15.0758 75.0143 15.1227 72.905 15.1227C72.261 15.1227 71.7477 14.9491 71.365 14.6019C70.9823 14.2453 70.7863 13.7668 70.777 13.1662V7.28276C70.7863 6.68222 70.9823 6.20835 71.365 5.86116C71.7477 5.50459 72.261 5.3263 72.905 5.3263C75.0143 5.3263 76.5077 5.37322 77.385 5.46705L77.287 7.05756H73.577C73.3437 7.05756 73.1757 7.11386 73.073 7.22646C72.9703 7.33906 72.919 7.52204 72.919 7.7754V9.2533H76.769V10.8016H72.919V12.6736C72.919 12.9363 72.9703 13.124 73.073 13.2366C73.1757 13.3492 73.3437 13.4055 73.577 13.4055H77.287Z" fill="#515070"/>
<path d="M86.6834 5.36852H88.7414C89.2547 5.36852 89.5208 5.63595 89.5394 6.17082L89.9174 15.0805H87.9014L87.5794 7.04348H87.3414L85.8854 13.0536C85.7921 13.5134 85.5027 13.7433 85.0174 13.7433H83.6174C83.1321 13.7433 82.8428 13.5134 82.7494 13.0536L81.2794 7.04348H81.0414L80.7614 15.0805H78.7454L79.0954 6.17082C79.1234 5.63595 79.3894 5.36852 79.8934 5.36852H81.9514C82.4087 5.36852 82.6888 5.59842 82.7914 6.05821L83.9674 10.9001C84.0421 11.2098 84.1261 11.6649 84.2194 12.2654H84.4014C84.4107 12.2185 84.4434 12.0261 84.4994 11.6883C84.5648 11.3505 84.6161 11.0878 84.6534 10.9001L85.8154 6.05821C85.9274 5.59842 86.2167 5.36852 86.6834 5.36852Z" fill="#515070"/>
<path d="M47.1081 31.1665H44.9801V21.4545H47.1081V31.1665Z" fill="#515070"/>
<path d="M49.068 31.1665V21.4545C49.936 21.3701 51.1587 21.3279 52.736 21.3279C54.0894 21.3279 55.0134 21.5484 55.508 21.9894C56.012 22.4304 56.264 23.2656 56.264 24.4948C56.264 25.724 56.026 26.5639 55.55 27.0143C55.0834 27.4553 54.2387 27.6758 53.016 27.6758C52.4 27.6758 51.7934 27.6383 51.196 27.5632V31.1665H49.068ZM51.196 26.029H52.694C53.2447 26.0196 53.618 25.9117 53.814 25.7053C54.0194 25.4988 54.122 25.0954 54.122 24.4948C54.122 23.8943 54.0194 23.4908 53.814 23.2843C53.618 23.0779 53.2447 22.9747 52.694 22.9747L51.196 22.9888V26.029Z" fill="#515070"/>
<path d="M61.2376 27.4928L59.2916 26.8031C58.573 26.5404 58.0596 26.1838 57.7516 25.7334C57.4436 25.283 57.2896 24.6919 57.2896 23.9599C57.2896 22.8902 57.5463 22.1771 58.0596 21.8205C58.5823 21.4545 59.497 21.2716 60.8036 21.2716C62.0356 21.2716 63.095 21.3982 63.9816 21.6516L63.8417 23.1154C63.0296 23.0873 62.0217 23.0732 60.8176 23.0732C60.2576 23.0732 59.8843 23.1248 59.6976 23.228C59.511 23.3219 59.4176 23.5658 59.4176 23.9599C59.4176 24.279 59.4876 24.5089 59.6276 24.6496C59.7676 24.7904 60.0336 24.9264 60.4256 25.0578L62.2596 25.6912C63.0063 25.9539 63.5336 26.3152 63.8417 26.775C64.1497 27.2254 64.3036 27.8166 64.3036 28.5485C64.3036 29.637 64.0423 30.3783 63.5196 30.7724C62.997 31.1571 62.0636 31.3495 60.7196 31.3495C59.6276 31.3495 58.5216 31.2275 57.4016 30.9835L57.5276 29.4352C59.5156 29.4821 60.5796 29.5056 60.7196 29.5056C61.289 29.5056 61.667 29.4446 61.8536 29.3226C62.0496 29.2006 62.1476 28.9473 62.1476 28.5626C62.1476 28.2341 62.0823 28.0042 61.9516 27.8729C61.821 27.7321 61.583 27.6054 61.2376 27.4928Z" fill="#515070"/>
<path d="M73.4741 21.4545V27.2958C73.4741 28.7784 73.1894 29.8246 72.6201 30.4346C72.0601 31.0445 71.0894 31.3495 69.7081 31.3495C68.2521 31.3495 67.2254 31.0445 66.6281 30.4346C66.0401 29.8246 65.7461 28.7784 65.7461 27.2958V21.4545H67.8741V27.2958C67.8741 28.1872 67.9954 28.7971 68.2381 29.1256C68.4901 29.454 68.9474 29.6182 69.6101 29.6182C70.2634 29.6182 70.7114 29.454 70.9541 29.1256C71.2061 28.7971 71.3321 28.1872 71.3321 27.2958V21.4545H73.4741Z" fill="#515070"/>
<path d="M83.1014 21.4545H85.1594C85.6727 21.4545 85.9387 21.722 85.9574 22.2568L86.3354 31.1665H84.3194L83.9974 23.1295H83.7594L82.3034 29.1396C82.21 29.5994 81.9207 29.8293 81.4354 29.8293H80.0354C79.5501 29.8293 79.2607 29.5994 79.1674 29.1396L77.6974 23.1295H77.4594L77.1794 31.1665H75.1634L75.5134 22.2568C75.5414 21.722 75.8074 21.4545 76.3114 21.4545H78.3694C78.8267 21.4545 79.1067 21.6844 79.2094 22.1442L80.3854 26.9861C80.46 27.2958 80.544 27.7509 80.6374 28.3514H80.8194C80.8287 28.3045 80.8614 28.1121 80.9174 27.7743C80.9827 27.4365 81.034 27.1738 81.0714 26.9861L82.2334 22.1442C82.3454 21.6844 82.6347 21.4545 83.1014 21.4545Z" fill="#515070"/>
</svg>
