<?xml version="1.0" encoding="UTF-8" standalone="no"?>
<!-- Created with Inkscape (http://www.inkscape.org/) -->
<svg
   xmlns:svg="http://www.w3.org/2000/svg"
   xmlns="http://www.w3.org/2000/svg"
   version="1.0"
   width="400"
   height="400"
   id="svg2">
  <defs
     id="defs4" />
  <path
     d="M 105.72896,85.821036 L 105.72896,85.821036 C 98.641355,84.508801 94.572605,84.640051 93.522715,86.214786 C 92.735105,87.265048 94.047605,90.152546 97.460215,94.877286 C 107.43509,109.57753 113.99758,118.10877 117.14771,120.47104 C 120.56008,122.83377 124.76007,122.04627 129.74771,118.10854 C 135.52256,111.54628 136.96631,105.37754 134.07896,99.602285 C 130.40382,92.777543 120.95383,88.183797 105.72896,85.821036 L 105.72896,85.821036 z M 165.97271,78.733536 L 165.97271,78.733536 C 159.14754,77.158808 155.21004,77.683808 154.16021,80.308536 C 153.11005,82.408803 153.7663,84.902551 156.12896,87.789786 L 156.12896,87.789786 C 166.36628,99.865035 172.92878,106.95253 175.81646,109.05229 C 179.49127,111.94003 183.03502,111.94003 186.44771,109.05229 C 191.43501,104.06504 192.22251,98.552535 188.81021,92.514786 C 185.13502,85.69005 177.52252,81.096304 165.97271,78.733536 L 165.97271,78.733536 z M 272.67896,65.739785 L 272.67896,65.739785 C 264.01619,58.915076 257.1912,55.502579 252.20396,55.502285 C 248.2662,55.240079 245.77246,57.340077 244.72271,61.802285 C 242.35996,69.415066 238.02871,76.633809 231.72896,83.458536 C 228.05372,87.658798 222.54123,92.646293 215.19146,98.421035 L 210.46646,102.35854 C 205.74125,104.72129 204.2975,107.21503 206.13521,109.83979 C 207.70999,112.72753 212.17249,112.85878 219.52271,110.23354 L 230.94146,104.72104 C 238.02871,101.57129 243.54121,99.208785 247.47896,97.633536 C 254.3037,94.746291 260.60369,92.515043 266.37896,90.939786 C 276.87868,87.527548 282.25992,84.246301 282.52271,81.096036 C 282.78492,78.733807 279.63492,73.746311 273.07271,66.133535 L 272.67896,65.739785 z M 230.15396,23.214784 L 230.15396,23.214784 C 216.50373,17.440116 207.70999,14.683869 203.77271,14.946034 C 201.1475,15.208868 199.31,17.702616 198.26021,22.427284 L 198.26021,23.214784 C 196.16,30.827603 185.92251,39.490095 167.54771,49.202285 C 151.79755,57.602577 135.26006,64.42757 117.93521,69.677285 C 111.37259,71.515064 108.61634,72.827562 109.66646,73.614786 C 110.19134,74.140061 112.94759,74.665061 117.93521,75.189786 L 120.69146,75.583536 C 126.46632,75.846309 138.67256,73.352562 157.31021,68.102285 C 168.33503,64.95257 186.18501,59.308825 210.86021,51.171035 L 234.09146,44.083535 C 241.44121,42.771341 245.24746,40.802593 245.51021,38.177284 C 246.03496,34.502599 240.91621,29.515104 230.15396,23.214784 L 230.15396,23.214784 z M 109.66646,166.53979 L 109.66646,166.53979 C 107.30384,161.28998 105.20384,159.32123 103.36646,160.63354 C 102.31635,161.42123 100.8726,163.91498 99.035215,168.11479 L 99.035215,169.29604 C 96.935105,173.75872 94.441355,178.22122 91.553965,182.68354 C 89.978865,185.30871 87.747615,188.58996 84.860215,192.52729 C 81.710125,196.72745 79.610125,199.74619 78.560215,201.58354 C 76.985125,204.73369 76.328875,207.88369 76.591465,211.03354 C 76.591375,218.12118 78.822625,223.10867 83.285215,225.99605 C 87.747615,229.40867 92.472605,227.83367 97.460215,221.27105 C 105.07259,210.77118 109.92884,201.97744 112.02896,194.88979 C 114.65383,185.70246 113.86633,176.25247 109.66646,166.53979 L 109.66646,166.53979 z M 225.42896,142.12729 L 225.42896,142.12729 C 215.97874,140.5525 210.59749,140.5525 209.28521,142.12729 C 208.23499,143.7025 210.33499,146.72125 215.58521,151.18354 C 227.39747,163.78373 236.05997,171.78997 241.57271,175.20229 C 248.92245,179.92746 254.69745,179.66496 258.89771,174.41479 C 264.67244,167.32748 266.11619,161.55248 263.22896,157.08979 C 259.02869,150.78999 246.42871,145.8025 225.42896,142.12729 L 225.42896,142.12729 z M 161.24771,158.27104 L 161.24771,158.27104 C 152.84755,157.22124 147.9913,157.61499 146.67896,159.45229 C 145.3663,161.28998 146.9413,164.43998 151.40396,168.90229 C 158.22879,178.08997 164.39754,184.38996 169.91021,187.80229 C 176.73502,192.00245 182.64127,192.00245 187.62896,187.80229 C 192.61626,182.02746 194.45376,177.03997 193.14146,172.83979 C 191.04126,165.75248 180.41002,160.89623 161.24771,158.27104 L 161.24771,158.27104 z M 137.22896,191.34604 L 137.22896,191.34604 C 130.66632,185.57121 126.33507,183.20871 124.23521,184.25854 C 122.39758,185.04621 123.31633,188.58996 126.99146,194.88979 C 133.29132,205.91494 142.08506,214.31493 153.37271,220.08979 C 166.49753,226.65242 183.56002,229.93366 204.56021,229.93355 C 221.09748,229.93366 236.45372,227.57117 250.62896,222.84605 C 265.59119,218.12118 273.07243,212.73993 273.07271,206.70229 C 273.07243,202.76494 272.28493,200.13994 270.71021,198.82729 C 269.65993,198.03995 267.03494,197.25245 262.83521,196.46479 C 259.15994,195.93995 256.00995,195.2837 253.38521,194.49604 C 248.92245,193.1837 244.45996,191.47745 239.99771,189.37729 C 223.98498,181.23996 214.14124,177.56497 210.46646,178.35229 C 207.05374,178.87746 208.23499,181.89621 214.01021,187.40854 L 217.94771,190.55854 C 223.98498,195.5462 227.26622,198.6962 227.79146,200.00854 C 228.31622,201.58369 226.21623,203.28994 221.49146,205.12729 C 209.94124,209.32743 195.8975,210.37743 179.36021,208.27729 C 161.51004,205.91494 147.4663,200.27119 137.22896,191.34604 L 137.22896,191.34604 z M 169.51646,251.5898 L 169.51646,251.5898 C 171.09128,248.4399 171.22253,245.68365 169.91021,243.32105 C 168.59753,240.69615 165.05378,237.28366 159.27896,233.08355 C 153.7663,229.67117 149.0413,227.57117 145.10396,226.78355 C 141.69131,226.25867 138.93506,226.52117 136.83521,227.57105 C 135.26006,228.35867 134.34131,229.67117 134.07896,231.50855 C 133.55382,233.08366 133.94756,234.52741 135.26021,235.8398 C 137.36006,239.25241 136.83506,244.7649 133.68521,252.3773 C 130.53507,260.51489 125.15382,269.17738 117.54146,278.3648 C 108.87884,288.60236 98.772605,298.1836 87.222715,307.10855 C 73.572625,317.08358 58.872645,325.48357 43.122715,332.30855 C 36.035165,335.19606 33.278915,337.16481 34.853955,338.2148 C 36.428915,339.26481 41.022655,339.13356 48.635205,337.82105 C 65.960135,333.88356 81.447625,328.23982 95.097715,320.8898 C 109.01009,313.01483 122.39758,302.64609 135.26021,289.78355 C 142.87256,292.6711 150.6163,296.73985 158.49146,301.9898 C 164.52879,305.92734 171.74753,311.43984 180.14771,318.5273 C 169.12253,330.07732 156.12879,340.18356 141.16646,348.84605 C 125.15382,358.03354 108.35384,364.72728 90.766465,368.9273 C 81.578875,371.02728 77.247625,372.86478 77.772715,374.4398 C 78.297625,376.27727 84.728865,377.19602 97.066465,377.19605 C 114.39133,377.19602 131.71632,373.52103 149.04146,366.17105 C 166.62878,358.82104 183.03502,348.05855 198.26021,333.88355 L 210.46646,342.9398 C 220.70373,350.2898 228.70997,356.19604 234.48521,360.65855 C 244.72246,367.74603 254.8287,374.43977 264.80396,380.7398 L 267.16646,381.5273 C 272.41618,383.88977 279.50367,385.07101 288.42896,385.07105 C 304.44115,385.07101 329.90362,382.31477 364.81647,376.8023 C 372.16608,375.48977 374.92233,373.91478 373.08522,372.0773 C 371.24733,370.23978 366.52234,368.53353 358.91021,366.95855 C 323.20988,359.34604 292.75991,351.0773 267.56021,342.1523 C 246.82246,335.06481 228.97247,327.18982 214.01021,318.5273 L 230.15396,298.0523 C 234.09122,292.27735 238.42246,287.15861 243.14771,282.69605 C 245.77246,280.07112 249.3162,276.92112 253.77896,273.24605 C 259.29119,268.52113 261.91619,265.23988 261.65396,263.4023 C 261.39119,260.77739 257.4537,256.70864 249.84146,251.19605 C 241.17871,244.89615 235.40372,241.3524 232.51646,240.5648 C 230.15372,239.77741 226.47873,240.3024 221.49146,242.1398 C 215.45374,244.2399 209.67874,245.8149 204.16646,246.8648 C 194.45376,248.9649 182.90377,250.53989 169.51646,251.5898 L 169.51646,251.5898 z M 143.52896,280.33355 L 143.52896,280.33355 L 147.07271,275.60855 L 152.19146,270.09605 L 155.34146,265.7648 C 162.95379,265.76488 170.82878,265.23988 178.96646,264.1898 C 183.95377,263.66488 190.38501,262.74613 198.26021,261.43355 C 208.75999,259.85864 214.92874,259.46489 216.76646,260.2523 C 219.39123,261.82738 218.47248,266.42113 214.01021,274.03355 C 211.64749,279.28362 208.75999,284.53361 205.34771,289.78355 C 201.6725,295.2961 197.735,300.67735 193.53521,305.9273 L 187.23521,301.9898 C 178.04752,295.68985 171.09128,291.35861 166.36646,288.99605 C 159.01629,285.05861 151.4038,282.17111 143.52896,280.33355 L 143.52896,280.33355 z M 72.260215,136.22104 L 72.260215,136.22104 C 67.797635,125.19627 63.860135,120.07752 60.447715,120.86479 C 57.822645,121.39002 55.197645,125.85252 52.572715,134.25229 C 49.685155,142.39 46.272655,150.00249 42.335205,157.08979 C 40.235165,161.28998 37.347665,166.27748 33.672705,172.05229 C 29.472675,178.08997 27.110175,182.42121 26.585205,185.04604 C 25.797675,188.9837 27.110175,193.7087 30.522705,199.22104 C 36.560165,208.93369 43.647655,210.11493 51.785215,202.76479 C 60.447645,194.88995 67.928885,178.74621 74.228965,154.33354 C 124.89132,146.98375 165.71003,141.47125 196.68521,137.79604 C 226.60997,134.38376 249.18495,132.54626 264.41021,132.28354 C 278.32242,132.02126 287.24742,132.94001 291.18521,135.03979 C 294.59741,136.87751 294.85991,140.0275 291.97271,144.48979 L 279.76646,160.23979 C 275.82868,164.96498 274.12243,167.72123 274.64771,168.50854 C 275.43493,169.03372 279.63492,168.50872 287.24771,166.93354 C 295.12241,165.09623 303.65365,163.52123 312.84146,162.20854 C 317.82864,161.68373 324.65363,161.02748 333.31646,160.23979 C 347.49111,159.18998 354.97235,157.35249 355.76021,154.72729 C 356.80985,151.31499 350.3786,143.1775 336.46646,130.31479 C 323.86613,118.76502 314.28489,112.33378 307.72271,111.02104 C 301.6849,109.70878 287.37867,110.89003 264.80396,114.56479 C 239.34121,119.02752 216.24124,122.44002 195.50396,124.80229 C 158.75379,129.52751 117.67258,133.33376 72.260215,136.22104 L 72.260215,136.22104 z "
     style="font-size:403.20001221px;font-style:normal;font-variant:normal;font-weight:normal;font-stretch:normal;text-align:start;line-height:125%;writing-mode:lr-tb;text-anchor:start;fill:#000000;fill-opacity:1;stroke:none;stroke-width:1px;stroke-linecap:butt;stroke-linejoin:miter;stroke-opacity:1;font-family:HYhaeseo"
     id="text2163" />
</svg>
