<svg width="34" height="34" viewBox="0 0 34 34" fill="none" xmlns="http://www.w3.org/2000/svg">
<path d="M8.98695 7.29487C8.38451 7.18333 8.03866 7.19449 7.94942 7.32834C7.88247 7.41761 7.99404 7.66305 8.28411 8.06465C9.13197 9.31417 9.68978 10.0393 9.95755 10.2401C10.2476 10.441 10.6046 10.374 11.0285 10.0393C11.5194 9.48152 11.6421 8.95717 11.3967 8.46628C11.0843 7.88617 10.2811 7.4957 8.98695 7.29487ZM14.1077 6.69243C13.5275 6.55858 13.1928 6.60321 13.1036 6.82631C13.0143 7.00483 13.0701 7.2168 13.271 7.46221C14.1411 8.48861 14.6989 9.09105 14.9444 9.26953C15.2567 9.51498 15.558 9.51498 15.848 9.26953C16.272 8.84561 16.3389 8.37705 16.0489 7.86384C15.7365 7.28374 15.0894 6.89327 14.1077 6.69243ZM23.1777 5.58796C22.4414 5.00786 21.8612 4.7178 21.4373 4.71778C21.1026 4.69549 20.8906 4.87399 20.8014 5.25328C20.6006 5.90036 20.2324 6.51396 19.697 7.09406C19.3846 7.45108 18.916 7.87502 18.2913 8.36587L17.8896 8.70056C17.488 8.90139 17.3653 9.11336 17.5215 9.33646C17.6553 9.58192 18.0347 9.59308 18.6594 9.36993L19.63 8.90137C20.2324 8.63364 20.701 8.43283 21.0357 8.29893C21.6158 8.05352 22.1513 7.86386 22.6422 7.72996C23.5347 7.43992 23.9921 7.16102 24.0144 6.89325C24.0367 6.69246 23.769 6.26852 23.2112 5.62143L23.1777 5.58796ZM19.5631 1.97334C18.4028 1.48249 17.6553 1.24821 17.3207 1.27049C17.0975 1.29284 16.9413 1.5048 16.8521 1.9064V1.97334C16.6736 2.62043 15.8034 3.35674 14.2415 4.18228C12.9028 4.8963 11.4971 5.47643 10.0245 5.92265C9.46666 6.07886 9.23238 6.19042 9.32164 6.25734C9.36625 6.30199 9.60054 6.34661 10.0245 6.39121L10.2588 6.42468C10.7496 6.44702 11.7872 6.23505 13.3714 5.78878C14.3085 5.52105 15.8257 5.04133 17.9231 4.34962L19.8978 3.74718C20.5225 3.63565 20.846 3.4683 20.8684 3.24515C20.913 2.9328 20.4779 2.50887 19.5631 1.97334ZM9.32164 14.156C9.12082 13.7097 8.94232 13.5424 8.78614 13.6539C8.69688 13.7209 8.57416 13.9329 8.41798 14.2898V14.3902C8.23947 14.7696 8.02751 15.1489 7.78208 15.5282C7.64819 15.7513 7.45854 16.0302 7.21311 16.3649C6.94535 16.7219 6.76685 16.9785 6.67761 17.1347C6.54373 17.4024 6.48794 17.6702 6.51027 17.9379C6.51026 18.5404 6.69991 18.9643 7.07923 19.2097C7.45854 19.4998 7.86016 19.3659 8.28411 18.8081C8.93116 17.9156 9.34394 17.1682 9.52245 16.5657C9.74557 15.7848 9.67863 14.9815 9.32164 14.156ZM19.1615 12.0809C18.3582 11.947 17.9008 11.947 17.7892 12.0809C17.7 12.2148 17.8785 12.4714 18.3247 12.8507C19.3288 13.9217 20.0651 14.6022 20.5337 14.8923C21.1584 15.2939 21.6493 15.2716 22.0063 14.8253C22.4971 14.2229 22.6199 13.732 22.3745 13.3527C22.0174 12.8172 20.9464 12.3933 19.1615 12.0809ZM13.706 13.4531C12.992 13.3639 12.5792 13.3974 12.4677 13.5535C12.3561 13.7097 12.49 13.9775 12.8693 14.3568C13.4494 15.1377 13.9738 15.6732 14.4424 15.9633C15.0225 16.3203 15.5245 16.3203 15.9485 15.9633C16.3724 15.4724 16.5286 15.0485 16.417 14.6915C16.2385 14.089 15.3348 13.6763 13.706 13.4531ZM11.6645 16.2645C11.1066 15.7736 10.7385 15.5728 10.56 15.6621C10.4038 15.729 10.4819 16.0302 10.7943 16.5657C11.3298 17.5029 12.0772 18.2169 13.0367 18.7077C14.1523 19.2655 15.6026 19.5444 17.3876 19.5444C18.7933 19.5444 20.0986 19.3436 21.3035 18.942C22.5752 18.5404 23.2111 18.083 23.2112 17.5698C23.2111 17.2351 23.1442 17.012 23.0104 16.9004C22.9211 16.8335 22.698 16.7665 22.341 16.6996C22.0286 16.655 21.7608 16.5992 21.5377 16.5322C21.1584 16.4207 20.7791 16.2757 20.3998 16.0972C19.0387 15.4055 18.202 15.0931 17.8896 15.16C17.5996 15.2047 17.7 15.4613 18.1909 15.9298L18.5255 16.1976C19.0387 16.6215 19.3176 16.8893 19.3623 17.0008C19.4069 17.1347 19.2284 17.2797 18.8268 17.4359C17.845 17.7929 16.6513 17.8822 15.2456 17.7037C13.7283 17.5029 12.5346 17.0231 11.6645 16.2645ZM14.4089 21.3852C14.5427 21.1175 14.5539 20.8832 14.4424 20.6824C14.3308 20.4593 14.0296 20.1692 13.5387 19.8122C13.0701 19.5221 12.6685 19.3436 12.3338 19.2767C12.0438 19.2321 11.8095 19.2544 11.631 19.3436C11.4971 19.4106 11.419 19.5221 11.3967 19.6783C11.3521 19.8122 11.3855 19.9349 11.4971 20.0465C11.6756 20.3365 11.631 20.8051 11.3632 21.4522C11.0955 22.1438 10.6381 22.8802 9.99101 23.6611C9.25469 24.5313 8.39566 25.3457 7.41392 26.1043C6.25366 26.9522 5.00417 27.6662 3.66542 28.2463C3.06298 28.4917 2.8287 28.6591 2.96258 28.7483C3.09645 28.8376 3.48692 28.8264 4.13398 28.7149C5.6066 28.3802 6.92304 27.9005 8.0833 27.2757C9.26585 26.6063 10.4038 25.725 11.4971 24.6317C12.1442 24.8771 12.8024 25.223 13.4718 25.6692C13.9849 26.0039 14.5985 26.4725 15.3125 27.0749C14.3754 28.0567 13.2709 28.9157 11.9991 29.652C10.6381 30.4329 9.21007 31.0019 7.71514 31.3589C6.93419 31.5374 6.56604 31.6936 6.61067 31.8275C6.65529 31.9836 7.20194 32.0617 8.25064 32.0617C9.72325 32.0617 11.1959 31.7494 12.6685 31.1246C14.1634 30.4999 15.558 29.5851 16.8521 28.3802L17.8896 29.15C18.7598 29.7747 19.4403 30.2767 19.9312 30.6561C20.8014 31.2585 21.6604 31.8275 22.5083 32.363L22.7091 32.4299C23.1554 32.6307 23.7578 32.7311 24.5165 32.7311C25.8775 32.7311 28.0418 32.4968 31.0094 32.0283C31.6341 31.9167 31.8684 31.7828 31.7122 31.6267C31.556 31.4705 31.1544 31.3254 30.5074 31.1916C27.4728 30.5445 24.8846 29.8417 22.7426 29.083C20.9799 28.4806 19.4626 27.8112 18.1909 27.0749L19.5631 25.3345C19.8977 24.8437 20.2659 24.4086 20.6675 24.0292C20.8906 23.8061 21.1919 23.5384 21.5712 23.226C22.0397 22.8244 22.2629 22.5455 22.2406 22.3893C22.2182 22.1662 21.8836 21.8203 21.2365 21.3517C20.5002 20.8163 20.0093 20.515 19.7639 20.4481C19.5631 20.3812 19.2507 20.4258 18.8268 20.582C18.3136 20.7605 17.8227 20.8943 17.3541 20.9836C16.5286 21.1621 15.5468 21.296 14.4089 21.3852ZM12.2 23.8284L12.5012 23.4268L12.9363 22.9582L13.204 22.5901C13.8511 22.5901 14.5204 22.5455 15.2121 22.4562C15.6361 22.4116 16.1827 22.3335 16.8521 22.2219C17.7446 22.0881 18.2689 22.0546 18.4251 22.1215C18.6482 22.2554 18.5701 22.6459 18.1909 23.2929C17.99 23.7392 17.7446 24.1854 17.4545 24.6317C17.1422 25.1002 16.8075 25.5577 16.4505 26.0039L15.915 25.6692C15.134 25.1337 14.5427 24.7656 14.1411 24.5647C13.5164 24.2301 12.8693 23.9846 12.2 23.8284ZM6.14211 11.5789C5.76279 10.6418 5.4281 10.2067 5.13805 10.2736C4.91492 10.3182 4.69179 10.6975 4.46867 11.4115C4.22323 12.1032 3.93317 12.7503 3.59848 13.3527C3.41998 13.7097 3.17454 14.1337 2.86217 14.6245C2.50517 15.1377 2.30436 15.5059 2.25973 15.729C2.19279 16.0637 2.30436 16.4653 2.59442 16.9339C3.1076 17.7594 3.71004 17.8599 4.40173 17.2351C5.13804 16.5657 5.77395 15.1935 6.30945 13.1184C10.6158 12.4937 14.0853 12.0251 16.7182 11.7127C19.2618 11.4227 21.1807 11.2665 22.4749 11.2442C23.6574 11.2219 24.416 11.3 24.7507 11.4785C25.0408 11.6347 25.0631 11.9024 24.8177 12.2817L23.7801 13.6205C23.4454 14.0221 23.3004 14.2564 23.345 14.3233C23.412 14.3679 23.769 14.3233 24.416 14.1894C25.0854 14.0333 25.8105 13.8994 26.5915 13.7878C27.0154 13.7432 27.5955 13.6874 28.3319 13.6205C29.5367 13.5312 30.1726 13.375 30.2396 13.1519C30.3288 12.8619 29.7822 12.1702 28.5996 11.0768C27.5286 10.0951 26.7142 9.54845 26.1564 9.43687C25.6432 9.32533 24.4272 9.42573 22.5083 9.73809C20.344 10.1174 18.3805 10.4075 16.6178 10.6083C13.4941 11.0099 10.0022 11.3335 6.14211 11.5789Z" fill="#8FACBF"/>
</svg>
